<svg width="123" height="124" viewBox="0 0 123 124" fill="none" xmlns="http://www.w3.org/2000/svg">
    <path d="M0.257812 62.08C0.257812 28.2013 27.7219 0.737305 61.6005 0.737305C95.4791 0.737305 122.943 28.2013 122.943 62.08C122.943 95.9586 95.4791 123.423 61.6005 123.423C27.7219 123.423 0.257812 95.9586 0.257812 62.08Z" fill="#DDF9C7"/>
    <path d="M18.2988 62.08C18.2988 38.1657 37.6852 18.7793 61.5995 18.7793C85.5138 18.7793 104.9 38.1657 104.9 62.08C104.9 85.9943 85.5138 105.381 61.5995 105.381C37.6852 105.381 18.2988 85.9943 18.2988 62.08Z" fill="#2F4A0B"/>
    <path d="M57.1541 80.045C56.0913 80.0468 55.0568 79.7029 54.2065 79.0653L54.1537 79.0258L43.0513 70.5328C42.536 70.139 42.1034 69.6474 41.7782 69.0862C41.4531 68.5251 41.2417 67.9053 41.1563 67.2624C41.0708 66.6195 41.113 65.966 41.2804 65.3394C41.4477 64.7128 41.737 64.1254 42.1315 63.6107C42.5261 63.096 43.0184 62.6641 43.58 62.3398C44.1417 62.0155 44.7618 61.8051 45.4048 61.7206C46.0479 61.6362 46.7013 61.6794 47.3276 61.8477C47.9539 62.016 48.5409 62.3062 49.055 62.7016L56.2463 68.2162L73.2397 46.0465C73.6337 45.5325 74.1251 45.1011 74.6858 44.7771C75.2466 44.453 75.8657 44.2425 76.5078 44.1577C77.1499 44.0729 77.8024 44.1154 78.428 44.2827C79.0537 44.4501 79.6403 44.7391 80.1542 45.1332L80.0502 45.2807L80.1585 45.1342C81.1954 45.9312 81.8739 47.107 82.0449 48.4035C82.2159 49.7001 81.8656 51.0116 81.0708 52.0502L61.0829 78.115C60.6204 78.7155 60.0259 79.2015 59.3453 79.5352C58.6648 79.8689 57.9165 80.0413 57.1585 80.0391L57.1541 80.045Z" fill="white"/>
</svg>
