<svg width="350" height="323" viewBox="0 0 350 323" fill="none" xmlns="http://www.w3.org/2000/svg">
    <g clip-path="url(#clip0_664_7041)">
        <path d="M248.067 296.076H88.4219C84.6305 296.072 80.9956 294.563 78.3152 291.882C75.6347 289.201 74.1276 285.565 74.1247 281.774V220.408C73.7942 220.784 73.4483 221.156 73.092 221.518V281.774C73.0957 285.839 74.7119 289.736 77.5858 292.611C80.4598 295.486 84.3568 297.104 88.4219 297.109H248.516C248.361 296.768 248.211 296.422 248.067 296.076ZM74.1247 69.2511C74.1276 65.4596 75.6347 61.8243 78.3152 59.1428C80.9956 56.4614 84.6305 54.953 88.4219 54.9487H141.615C141.516 54.6027 141.423 54.262 141.336 53.916H88.4219C84.3568 53.9211 80.4598 55.5385 77.5858 58.4135C74.7119 61.2884 73.0957 65.186 73.092 69.2511V163.327C73.4483 163.688 73.7891 164.06 74.1247 164.437V69.2511ZM288.485 81.3126L255.13 54.8919C254.334 54.2606 253.348 53.9167 252.332 53.916H222.648C222.565 54.262 222.472 54.6079 222.374 54.9487H252.332C253.115 54.9506 253.874 55.2141 254.49 55.6974L287.845 82.1233C288.162 82.373 288.417 82.6915 288.593 83.0547C288.768 83.4179 288.859 83.8163 288.857 84.2196V237.999C289.203 238.009 289.549 238.035 289.89 238.061V84.2196C289.892 83.6602 289.766 83.1078 289.523 82.6041C289.28 82.1005 288.925 81.6588 288.485 81.3126Z" fill="#3F3D56"/>
        <path d="M288.045 82.6766H261.131C260.158 82.6766 259.194 82.4849 258.295 82.1126C257.397 81.7403 256.58 81.1946 255.892 80.5067C255.204 79.8188 254.658 79.0021 254.286 78.1033C253.914 77.2044 253.722 76.2411 253.722 75.2682V55.3898C253.722 55.3028 253.747 55.2175 253.793 55.1437C253.839 55.07 253.905 55.0108 253.984 54.9729C254.062 54.935 254.149 54.92 254.236 54.9295C254.322 54.9391 254.404 54.9728 254.473 55.0268L288.332 81.8506C288.408 81.9103 288.462 81.992 288.489 82.0843C288.516 82.1766 288.514 82.275 288.482 82.3657C288.45 82.4565 288.391 82.5352 288.313 82.5909C288.235 82.6466 288.141 82.6766 288.045 82.6766Z" fill="#E6E6E6"/>
        <path d="M288.045 83.1927H261.131C259.03 83.1903 257.015 82.3546 255.53 80.8689C254.044 79.3833 253.208 77.369 253.206 75.2679V55.3896C253.206 55.2055 253.258 55.0252 253.355 54.8693C253.453 54.7133 253.593 54.5881 253.759 54.5079C253.924 54.4278 254.109 54.3959 254.292 54.416C254.475 54.4361 254.649 54.5074 254.793 54.6217L288.653 81.4458C288.812 81.572 288.928 81.7447 288.985 81.94C289.042 82.1352 289.037 82.3433 288.97 82.5354C288.903 82.7274 288.778 82.8939 288.612 83.0117C288.446 83.1295 288.248 83.1927 288.045 83.1927ZM254.238 55.4998V75.2679C254.241 77.0952 254.967 78.847 256.259 80.1391C257.551 81.4311 259.303 82.1579 261.131 82.16H287.891L254.238 55.4998Z" fill="#3F3D56"/>
        <path d="M234.619 116.94H155.442C154.46 116.94 153.518 116.549 152.823 115.855C152.128 115.16 151.738 114.218 151.738 113.235C151.738 112.253 152.128 111.311 152.823 110.616C153.518 109.922 154.46 109.531 155.442 109.531H234.619C235.601 109.531 236.543 109.922 237.238 110.616C237.933 111.311 238.323 112.253 238.323 113.235C238.323 114.218 237.933 115.16 237.238 115.855C236.543 116.549 235.601 116.94 234.619 116.94Z" fill="#CCCCCC"/>
        <path d="M249.899 129.442H155.442C154.46 129.442 153.518 129.051 152.823 128.357C152.128 127.662 151.738 126.72 151.738 125.737C151.738 124.755 152.128 123.813 152.823 123.118C153.518 122.423 154.46 122.033 155.442 122.033H249.898C250.881 122.033 251.823 122.423 252.518 123.118C253.212 123.813 253.603 124.755 253.603 125.737C253.603 126.72 253.212 127.662 252.518 128.357C251.823 129.051 250.881 129.442 249.899 129.442Z" fill="#CCCCCC"/>
        <path d="M234.619 172.965H155.442C154.46 172.965 153.518 172.575 152.823 171.88C152.128 171.185 151.738 170.243 151.738 169.261C151.738 168.278 152.128 167.336 152.823 166.642C153.518 165.947 154.46 165.557 155.442 165.557H234.619C235.601 165.557 236.543 165.947 237.238 166.642C237.933 167.336 238.323 168.278 238.323 169.261C238.323 170.243 237.933 171.185 237.238 171.88C236.543 172.575 235.601 172.965 234.619 172.965Z" fill="#CCCCCC"/>
        <path d="M249.899 185.467H155.442C154.46 185.467 153.518 185.077 152.823 184.382C152.128 183.687 151.738 182.745 151.738 181.763C151.738 180.78 152.128 179.838 152.823 179.144C153.518 178.449 154.46 178.059 155.442 178.059H249.898C250.881 178.059 251.823 178.449 252.518 179.144C253.212 179.838 253.603 180.78 253.603 181.763C253.603 182.745 253.212 183.687 252.518 184.382C251.823 185.077 250.881 185.467 249.899 185.467Z" fill="#CCCCCC"/>
        <path d="M234.619 228.991H155.442C154.956 228.991 154.474 228.896 154.025 228.709C153.575 228.523 153.167 228.25 152.823 227.906C152.479 227.562 152.206 227.154 152.02 226.705C151.834 226.255 151.738 225.774 151.738 225.287C151.738 224.801 151.834 224.319 152.02 223.87C152.206 223.42 152.479 223.012 152.823 222.668C153.167 222.324 153.575 222.051 154.025 221.865C154.474 221.679 154.956 221.583 155.442 221.583H234.619C235.601 221.583 236.543 221.973 237.238 222.668C237.933 223.363 238.323 224.305 238.323 225.287C238.323 226.27 237.933 227.212 237.238 227.906C236.543 228.601 235.601 228.991 234.619 228.991Z" fill="#CCCCCC"/>
        <path d="M249.899 241.492H155.442C154.956 241.492 154.474 241.396 154.025 241.21C153.575 241.024 153.167 240.751 152.823 240.407C152.479 240.063 152.206 239.655 152.02 239.206C151.834 238.756 151.738 238.275 151.738 237.788C151.738 237.302 151.834 236.82 152.02 236.371C152.206 235.921 152.479 235.513 152.823 235.169C153.167 234.825 153.575 234.552 154.025 234.366C154.474 234.18 154.956 234.084 155.442 234.084H249.898C250.385 234.084 250.867 234.18 251.316 234.366C251.765 234.552 252.174 234.825 252.518 235.169C252.862 235.513 253.135 235.921 253.321 236.371C253.507 236.82 253.603 237.302 253.603 237.788C253.603 238.275 253.507 238.756 253.321 239.206C253.135 239.655 252.862 240.063 252.518 240.407C252.174 240.751 251.765 241.024 251.316 241.21C250.867 241.396 250.385 241.492 249.899 241.492Z" fill="#CCCCCC"/>
        <path d="M122.471 132.579C129.702 132.579 135.563 126.717 135.563 119.487C135.563 112.256 129.702 106.395 122.471 106.395C115.24 106.395 109.379 112.256 109.379 119.487C109.379 126.717 115.24 132.579 122.471 132.579Z" fill="#162E51"/>
        <path d="M121.174 124.481C120.879 124.481 120.593 124.386 120.357 124.209L120.342 124.198L117.266 121.845C117.123 121.735 117.003 121.599 116.913 121.444C116.823 121.288 116.764 121.116 116.74 120.938C116.717 120.76 116.728 120.579 116.775 120.405C116.821 120.232 116.901 120.069 117.011 119.926C117.12 119.784 117.256 119.664 117.412 119.574C117.568 119.484 117.74 119.426 117.918 119.402C118.096 119.379 118.277 119.391 118.451 119.438C118.624 119.484 118.787 119.565 118.929 119.674L120.922 121.203L125.632 115.059C125.741 114.916 125.877 114.797 126.033 114.707C126.188 114.617 126.36 114.559 126.537 114.535C126.715 114.512 126.896 114.523 127.07 114.57C127.243 114.616 127.406 114.696 127.548 114.806L127.519 114.846L127.549 114.806C127.837 115.027 128.025 115.353 128.072 115.712C128.119 116.071 128.022 116.435 127.802 116.722L122.263 123.946C122.135 124.112 121.97 124.247 121.781 124.339C121.593 124.432 121.385 124.48 121.175 124.479L121.174 124.481Z" fill="white"/>
        <path d="M122.471 188.604C129.702 188.604 135.563 182.743 135.563 175.512C135.563 168.281 129.702 162.42 122.471 162.42C115.24 162.42 109.379 168.281 109.379 175.512C109.379 182.743 115.24 188.604 122.471 188.604Z" fill="#E6E6E6"/>
        <path d="M121.174 180.506C120.879 180.507 120.592 180.411 120.357 180.235L120.342 180.224L117.265 177.87C116.978 177.649 116.789 177.323 116.742 176.964C116.694 176.604 116.792 176.241 117.012 175.953C117.233 175.665 117.559 175.477 117.918 175.429C118.278 175.382 118.641 175.479 118.929 175.7L120.922 177.228L125.632 171.084C125.741 170.942 125.877 170.822 126.032 170.732C126.188 170.642 126.359 170.584 126.537 170.561C126.715 170.537 126.896 170.549 127.069 170.595C127.243 170.642 127.405 170.722 127.548 170.831L127.519 170.872L127.549 170.831C127.836 171.052 128.024 171.378 128.072 171.737C128.119 172.097 128.022 172.46 127.802 172.748L122.263 179.971C122.134 180.138 121.97 180.272 121.781 180.365C121.592 180.457 121.385 180.505 121.175 180.504L121.174 180.506Z" fill="white"/>
        <path d="M122.471 244.63C129.702 244.63 135.563 238.768 135.563 231.538C135.563 224.307 129.702 218.445 122.471 218.445C115.24 218.445 109.379 224.307 109.379 231.538C109.379 238.768 115.24 244.63 122.471 244.63Z" fill="#E6E6E6"/>
        <path d="M121.174 236.531C120.879 236.532 120.593 236.437 120.357 236.26L120.342 236.249L117.266 233.895C117.123 233.786 117.003 233.65 116.913 233.494C116.823 233.339 116.764 233.167 116.74 232.989C116.717 232.811 116.728 232.63 116.775 232.456C116.821 232.282 116.901 232.12 117.011 231.977C117.12 231.834 117.256 231.715 117.412 231.625C117.568 231.535 117.74 231.477 117.918 231.453C118.096 231.43 118.277 231.442 118.451 231.488C118.624 231.535 118.787 231.616 118.929 231.725L120.922 233.253L125.632 227.109C125.741 226.967 125.877 226.847 126.033 226.758C126.188 226.668 126.36 226.609 126.537 226.586C126.715 226.562 126.896 226.574 127.07 226.621C127.243 226.667 127.406 226.747 127.548 226.856L127.519 226.897L127.549 226.857C127.837 227.077 128.025 227.403 128.072 227.763C128.119 228.122 128.022 228.485 127.802 228.773L122.263 235.997C122.135 236.163 121.97 236.298 121.781 236.39C121.593 236.483 121.385 236.53 121.175 236.53L121.174 236.531Z" fill="white"/>
        <path d="M306.545 317.929C305.806 318.315 305.054 318.68 304.29 319.025C303.595 319.34 302.888 319.635 302.17 319.911C301.907 320.011 301.641 320.112 301.374 320.212C299.264 320.977 297.096 321.575 294.892 321.999C293.801 322.213 292.695 322.382 291.575 322.504C290.65 322.609 289.716 322.684 288.773 322.728C288.101 322.761 287.428 322.776 286.752 322.776C284.072 322.777 281.397 322.526 278.764 322.028C278.078 321.904 277.406 321.756 276.734 321.594C273.483 320.815 270.336 319.653 267.359 318.134C267.092 318 266.825 317.857 266.558 317.719C266.163 317.509 265.777 317.29 265.391 317.061C265.577 316.804 265.777 316.551 265.982 316.304C268.212 313.54 270.999 311.277 274.162 309.663C277.326 308.048 280.794 307.119 284.34 306.934C287.886 306.75 291.432 307.315 294.746 308.593C298.059 309.87 301.066 311.832 303.571 314.35C304.44 315.222 305.246 316.155 305.982 317.142C306.178 317.4 306.364 317.662 306.545 317.929Z" fill="#162E51"/>
        <path d="M287.703 296.994C299.261 296.994 308.63 287.625 308.63 276.067C308.63 264.509 299.261 255.14 287.703 255.14C276.145 255.14 266.776 264.509 266.776 276.067C266.776 287.625 276.145 296.994 287.703 296.994Z" fill="#2F2E41"/>
        <path d="M293.269 297.023C300.817 292.897 303.591 283.433 299.465 275.885C295.339 268.337 285.875 265.563 278.327 269.689C270.779 273.815 268.005 283.279 272.131 290.827C276.257 298.375 285.721 301.149 293.269 297.023Z" fill="#A0616A"/>
        <path d="M302.164 273.559C298.605 276.013 294.38 277.318 290.058 277.301C291.6 278.37 293.355 279.092 295.203 279.418C289.456 280.65 283.516 280.684 277.755 279.516C276.474 279.31 275.239 278.886 274.102 278.261C273.536 277.945 273.043 277.513 272.654 276.993C272.266 276.474 271.991 275.879 271.848 275.246C271.465 273.059 273.169 271.072 274.94 269.733C277.651 267.714 280.778 266.323 284.092 265.661C287.407 264.999 290.828 265.081 294.107 265.903C296.248 266.456 298.393 267.392 299.784 269.111C301.174 270.83 301.586 273.481 300.261 275.252L302.164 273.559Z" fill="#2F2E41"/>
        <path d="M289.89 237.1C289.549 237.074 289.203 237.053 288.857 237.038C288.16 237.002 287.458 236.986 286.751 236.986C279.717 236.987 272.791 238.716 266.583 242.024C260.376 245.331 255.077 250.114 251.153 255.952C247.229 261.789 244.801 268.502 244.083 275.499C243.365 282.496 244.378 289.562 247.034 296.075C247.174 296.421 247.318 296.767 247.473 297.108C251.022 305.147 256.937 311.912 264.43 316.502L264.703 316.662C264.936 316.801 265.163 316.935 265.39 317.059C265.777 317.292 266.165 317.508 266.557 317.72C266.825 317.86 267.094 317.999 267.357 318.133C270.335 319.653 273.482 320.815 276.734 321.593C277.405 321.758 278.076 321.902 278.763 322.026C281.396 322.525 284.071 322.776 286.751 322.775C287.427 322.775 288.098 322.76 288.775 322.729C289.714 322.687 290.649 322.61 291.573 322.507C292.694 322.383 293.8 322.214 294.893 322.001C297.096 321.575 299.263 320.978 301.373 320.214C301.642 320.111 301.91 320.013 302.168 319.909C302.891 319.636 303.593 319.341 304.29 319.026C305.055 318.681 305.807 318.314 306.547 317.927C313.965 314.04 320.097 308.085 324.2 300.784C324.219 300.746 324.24 300.708 324.262 300.671C327.756 294.375 329.608 287.3 329.647 280.1C329.686 272.9 327.912 265.805 324.487 259.471C321.062 253.138 316.098 247.768 310.051 243.858C304.005 239.948 297.071 237.624 289.89 237.1ZM327.954 287.752C327.125 292.083 325.614 296.256 323.478 300.113C323.441 300.18 323.405 300.247 323.369 300.309C319.35 307.504 313.304 313.357 305.984 317.142C305.251 317.524 304.509 317.882 303.759 318.216C303.134 318.495 302.494 318.763 301.848 319.011C301.58 319.114 301.301 319.223 301.027 319.316C299.204 319.981 297.335 320.516 295.435 320.916C294.027 321.217 292.603 321.441 291.17 321.587C290.287 321.686 289.394 321.753 288.491 321.784C287.912 321.81 287.334 321.825 286.751 321.825C284.157 321.826 281.569 321.584 279.021 321.102C277.47 320.818 275.937 320.442 274.431 319.977C272.136 319.269 269.905 318.366 267.765 317.276C267.517 317.147 267.269 317.018 267.027 316.884C266.676 316.698 266.324 316.507 265.984 316.305C265.726 316.161 265.467 316.006 265.214 315.856C265.065 315.768 264.92 315.681 264.77 315.588C257.638 311.179 251.979 304.745 248.516 297.108C248.361 296.767 248.212 296.421 248.067 296.075C245.399 289.701 244.347 282.767 245.005 275.888C245.663 269.01 248.01 262.4 251.838 256.647C255.666 250.895 260.856 246.177 266.947 242.913C273.038 239.65 279.841 237.942 286.751 237.942C287.458 237.942 288.16 237.957 288.857 237.998C289.203 238.009 289.549 238.035 289.89 238.06C295.782 238.507 301.513 240.192 306.708 243.006C311.904 245.82 316.447 249.699 320.04 254.39C323.633 259.081 326.195 264.477 327.559 270.226C328.923 275.975 329.057 281.947 327.954 287.752Z" fill="#3F3D56"/>
        <path d="M277.105 255.429C276.88 253.061 273.98 251.603 271.711 252.318C269.443 253.034 267.954 255.318 267.504 257.653C267.287 258.636 267.267 259.653 267.444 260.645C267.621 261.636 267.992 262.583 268.536 263.43C269.682 265.08 271.789 266.11 273.754 265.691C275.998 265.213 277.552 263.023 277.997 260.772C278.441 258.522 278 256.202 277.559 253.951L277.105 255.429Z" fill="#2F2E41"/>
        <path d="M309.029 258.81C308.803 256.443 305.903 254.985 303.635 255.7C301.366 256.415 299.877 258.699 299.427 261.035C299.21 262.018 299.19 263.035 299.367 264.026C299.544 265.018 299.915 265.964 300.459 266.812C301.605 268.462 303.712 269.492 305.678 269.073C307.921 268.595 309.475 266.405 309.92 264.154C310.365 261.904 309.923 259.584 309.482 257.333L309.029 258.81Z" fill="#2F2E41"/>
        <path d="M204.871 79.3429C198.231 83.5945 190.538 85.913 182.655 86.0384C174.771 86.1639 167.009 84.0913 160.237 80.053C161.429 77.8356 162.938 75.8044 164.717 74.0241C167.463 71.2653 170.805 69.1726 174.486 67.9067C178.166 66.6409 182.088 66.2357 185.95 66.7221C189.812 67.2086 193.511 68.5738 196.763 70.7129C200.014 72.852 202.733 75.7081 204.708 79.0617C204.761 79.1523 204.818 79.2476 204.871 79.3429Z" fill="#162E51"/>
        <path d="M180.69 56.5524C192.325 56.5524 201.756 47.1207 201.756 35.4862C201.756 23.8516 192.325 14.4199 180.69 14.4199C169.056 14.4199 159.624 23.8516 159.624 35.4862C159.624 47.1207 169.056 56.5524 180.69 56.5524Z" fill="#2F2E41"/>
        <path d="M194.3 50.3451C198.454 42.747 195.661 33.2204 188.063 29.0669C180.465 24.9133 170.939 27.7057 166.785 35.3039C162.631 42.902 165.424 52.4286 173.022 56.5821C180.62 60.7357 190.147 57.9432 194.3 50.3451Z" fill="#FFB8B8"/>
        <path d="M166.133 32.9615C169.716 35.4309 173.969 36.7451 178.32 36.7278C176.768 37.804 175.001 38.531 173.14 38.8587C178.926 40.0997 184.905 40.1333 190.705 38.9574C191.994 38.7507 193.237 38.3235 194.381 37.6945C194.952 37.3761 195.448 36.9413 195.839 36.4184C196.23 35.8955 196.507 35.2961 196.651 34.6592C197.036 32.4578 195.321 30.4578 193.538 29.1098C190.809 27.0776 187.662 25.6774 184.325 25.0106C180.988 24.3438 177.545 24.427 174.244 25.2543C172.089 25.8114 169.929 26.7527 168.53 28.4836C167.13 30.2145 166.715 32.8829 168.049 34.6653L166.133 32.9615Z" fill="#2F2E41"/>
        <path d="M181.981 0.733398C170.609 0.746043 159.706 5.26888 151.665 13.3098C143.623 21.3506 139.098 32.253 139.084 43.6252C139.086 47.0943 139.513 50.5502 140.355 53.9157C140.442 54.2616 140.53 54.6076 140.623 54.9483C143.097 64.02 148.487 72.0259 155.961 77.7317C163.435 83.4375 172.578 86.5264 181.981 86.5221C191.386 86.5219 200.531 83.4317 208.008 77.7271C215.485 72.0224 220.881 64.0191 223.365 54.9483C223.458 54.6024 223.546 54.2616 223.629 53.9157C225.184 47.5972 225.283 41.0077 223.917 34.6455C222.551 28.2833 219.756 22.3149 215.744 17.1917C211.732 12.0685 206.608 7.9246 200.759 5.07329C194.91 2.22199 188.489 0.737951 181.981 0.733398ZM222.648 53.9157C222.565 54.2616 222.472 54.6076 222.374 54.9483C220.632 61.1527 217.484 66.8725 213.175 71.6641C208.866 76.4558 203.511 80.1905 197.526 82.5788C191.54 84.9671 185.085 85.9447 178.661 85.4358C172.237 84.927 166.016 82.9453 160.481 79.6445C151.283 74.1091 144.537 65.2788 141.614 54.9483C141.516 54.6024 141.423 54.2616 141.336 53.9157C140.475 50.5532 140.04 47.096 140.04 43.6252C140.046 37.6839 141.315 31.8119 143.762 26.3981C146.21 20.9842 149.779 16.1521 154.234 12.2217C158.69 8.29136 163.929 5.35248 169.606 3.59974C175.283 1.847 181.267 1.32041 187.163 2.05483C193.059 2.78926 198.731 4.76794 203.804 7.85982C208.878 10.9517 213.236 15.0862 216.591 19.9895C219.946 24.8928 222.221 30.453 223.265 36.3018C224.309 42.1505 224.099 48.1544 222.648 53.9157Z" fill="#3F3D56"/>
        <path d="M65.7861 228.115C59.1468 232.367 51.4545 234.686 43.5714 234.812C35.6883 234.938 27.9259 232.866 21.1543 228.828C21.2264 228.689 21.3038 228.549 21.3865 228.415C23.5586 224.499 26.7241 221.226 30.5642 218.923C34.4043 216.62 38.7834 215.37 43.2604 215.298C47.7374 215.226 52.1543 216.336 56.0662 218.514C59.9781 220.693 63.2468 223.864 65.5433 227.708C65.5743 227.749 65.6 227.795 65.6259 227.837C65.6776 227.924 65.7344 228.023 65.7861 228.115Z" fill="#162E51"/>
        <path d="M62.6723 184.259C62.6723 188.426 61.4368 192.498 59.122 195.963C56.8072 199.427 53.5171 202.127 49.6677 203.722C45.8184 205.316 41.5826 205.733 37.4962 204.92C33.4097 204.108 29.6561 202.101 26.7099 199.155C23.7638 196.209 21.7574 192.455 20.9446 188.369C20.1317 184.282 20.5489 180.047 22.1434 176.197C23.7378 172.348 26.438 169.058 29.9023 166.743C33.3666 164.428 37.4396 163.193 41.6061 163.193C44.3763 163.179 47.1216 163.715 49.6835 164.769C52.2453 165.823 54.5729 167.374 56.5317 169.333C58.4906 171.292 60.0418 173.62 61.0958 176.182C62.1498 178.743 62.6856 181.489 62.6723 184.259Z" fill="#2F2E41"/>
        <path d="M58.113 197.348C57.8719 197.954 57.5943 198.546 57.2818 199.119C55.287 202.767 51.9247 205.474 47.9344 206.644C43.9441 207.813 39.6525 207.35 36.0037 205.356C34.1955 204.369 32.5995 203.036 31.3068 201.432C30.0142 199.828 29.0502 197.985 28.4701 196.009C27.89 194.032 27.705 191.961 27.9258 189.913C28.1465 187.865 28.7687 185.88 29.7567 184.073C30.7448 182.265 32.0793 180.67 33.684 179.379C35.2888 178.087 37.1323 177.124 39.1092 176.546C41.0862 175.967 43.1578 175.783 45.2057 176.006C47.2536 176.228 49.2376 176.851 51.0444 177.841C54.3962 179.673 56.9638 182.667 58.2653 186.258C59.5668 189.85 59.5126 193.793 58.113 197.348Z" fill="#A0616A"/>
        <path d="M74.1247 163.037C73.7942 162.676 73.4483 162.32 73.092 161.974C67.3547 156.288 60.1277 152.339 52.2438 150.581C44.3598 148.823 36.1397 149.329 28.5305 152.039C20.9213 154.75 14.2327 159.555 9.23531 165.901C4.23792 172.247 1.1351 179.876 0.28436 187.908C-0.566386 195.941 0.869554 204.05 4.42674 211.302C7.98393 218.554 13.5176 224.654 20.3902 228.898C27.2628 233.142 35.1947 235.359 43.2719 235.291C51.3492 235.224 59.2431 232.877 66.0442 228.519C68.5841 226.889 70.9463 224.997 73.092 222.875C73.4432 222.529 73.7891 222.178 74.1247 221.817C81.6164 213.865 85.7886 203.352 85.7886 192.427C85.7886 181.502 81.6164 170.989 74.1247 163.037ZM73.092 221.517C70.8245 223.867 68.2912 225.944 65.5432 227.708C65.5382 227.713 65.5329 227.713 65.5278 227.718C58.9625 231.922 51.3565 234.214 43.562 234.338C35.7675 234.462 28.0924 232.413 21.3968 228.421C21.3917 228.421 21.3917 228.415 21.3864 228.415C16.2511 225.353 11.83 221.228 8.41959 216.317C5.00918 211.406 2.68831 205.822 1.61266 199.941C0.537012 194.059 0.731442 188.016 2.18292 182.216C3.63439 176.416 6.30934 170.993 10.0284 166.311C13.7474 161.629 18.4245 157.797 23.7461 155.071C29.0676 152.345 34.9105 150.789 40.8828 150.506C46.8552 150.224 52.819 151.221 58.3741 153.432C63.9293 155.644 68.9475 159.017 73.0921 163.326C73.4483 163.688 73.7892 164.06 74.1247 164.437C81.02 172.127 84.8333 182.093 84.8333 192.422C84.8333 202.751 81.02 212.716 74.1247 220.407C73.7942 220.784 73.4483 221.156 73.092 221.517Z" fill="#3F3D56"/>
        <path d="M58.6799 166.764C57.6421 165.002 56.1377 163.562 54.3328 162.602C52.5278 161.641 50.4926 161.198 48.4518 161.322C46.3098 161.482 44.2717 162.272 42.2706 163.052L32.0964 167.021C29.4637 168.048 26.5804 169.306 25.438 171.891C24.3777 174.29 25.1688 177.06 25.9695 179.558L29.7761 191.43C30.2977 188.763 30.8275 186.07 31.9332 183.587C33.0389 181.105 34.7876 178.816 37.2054 177.576C39.8482 176.22 42.963 176.248 45.9298 176.391C50.1315 176.593 54.6999 177.128 57.6853 180.091C59.27 181.774 60.3444 183.873 60.7835 186.142C61.2158 188.4 61.4333 190.693 61.4333 192.992C63.1563 190.03 64.6077 186.918 65.7697 183.695C66.7256 181.295 67.2703 178.751 67.3809 176.17C67.4037 173.592 66.6739 170.933 64.955 169.012C63.2362 167.091 60.4355 166.054 57.9725 166.814" fill="#2F2E41"/>
        <path d="M26.5975 110.115L25.5649 110.103C25.5772 109.07 25.607 108.022 25.6534 106.988L26.685 107.035C26.6391 108.057 26.6097 109.094 26.5975 110.115Z" fill="#E6E6E6"/>
        <path d="M27.1387 101.137L26.1121 101.025C26.3277 99.0515 26.6101 97.0608 26.9514 95.1086L27.9686 95.2866C27.6311 97.2169 27.3518 99.1854 27.1387 101.137ZM29.1741 89.5014L28.1705 89.2583C28.6378 87.3299 29.1745 85.3921 29.7657 83.4985L30.7514 83.8061C30.1669 85.6785 29.6362 87.5949 29.1741 89.5014ZM32.6968 78.2187L31.7331 77.8476C32.4463 75.995 33.2299 74.1412 34.062 72.3376L34.9996 72.7702C34.1768 74.5537 33.402 76.3868 32.6968 78.2187ZM37.6495 67.4826L36.7418 66.9904C37.6872 65.2468 38.7027 63.51 39.7601 61.8281L40.6343 62.3778C39.5886 64.041 38.5845 65.7584 37.6495 67.4826ZM43.9405 57.4759L43.1033 56.8713C44.2651 55.2625 45.4945 53.6704 46.757 52.1393L47.5537 52.7963C46.3051 54.3106 45.0895 55.8848 43.9405 57.4759ZM51.4584 48.3581L50.7053 47.6517C52.062 46.2055 53.4841 44.7839 54.9318 43.4257L55.6383 44.179C54.2065 45.5221 52.8001 46.9281 51.4584 48.3581ZM60.0759 40.2758L59.4191 39.4791C60.9498 38.217 62.5411 36.9884 64.1489 35.8277L64.7534 36.6647C63.1635 37.8129 61.5898 39.0278 60.0759 40.2758ZM69.6518 33.3615L69.1022 32.4872C70.7818 31.4313 72.5168 30.4171 74.259 29.4724L74.7512 30.38C73.0284 31.3143 71.3127 32.3172 69.6518 33.3615ZM80.0307 27.734L79.5981 26.7962C81.3976 25.966 83.2478 25.1836 85.0975 24.4709L85.4687 25.4345C83.6397 26.1392 81.8101 26.9129 80.0307 27.734ZM91.0422 23.4919L90.7341 22.5062C92.6268 21.9144 94.5645 21.3769 96.4932 20.9088L96.7367 21.9122C94.8297 22.3753 92.9138 22.9068 91.0422 23.4919ZM102.521 20.7043L102.343 19.6873C104.295 19.3451 106.285 19.062 108.259 18.8457L108.372 19.8723C106.42 20.0861 104.451 20.3662 102.521 20.7043Z" fill="#E6E6E6"/>
        <path d="M114.304 19.4151L114.258 18.3834C115.292 18.337 116.34 18.3073 117.372 18.2949L117.384 19.3276C116.363 19.3397 115.327 19.3692 114.304 19.4151Z" fill="#E6E6E6"/>
        <path d="M30.4113 106.795L29.6735 106.072L26.1139 109.713L22.7422 105.896L21.9683 106.582L26.0757 111.229L30.4113 106.795Z" fill="#E6E6E6"/>
        <path d="M114.065 23.1413L113.342 22.4035L116.982 18.8439L113.166 15.4722L113.851 14.6982L118.498 18.8057L114.065 23.1413Z" fill="#E6E6E6"/>
        <path d="M268.558 29.6255C267.649 29.1472 266.733 28.6771 265.811 28.2153L266.273 27.292C267.202 27.7567 268.124 28.2299 269.039 28.7116L268.558 29.6255Z" fill="#E6E6E6"/>
        <path d="M338.73 220.218L337.774 219.826C338.551 217.931 339.298 215.997 339.995 214.078L340.965 214.43C340.264 216.362 339.512 218.309 338.73 220.218ZM342.963 208.556L341.979 208.244C342.598 206.294 343.185 204.305 343.723 202.333L344.719 202.605C344.177 204.591 343.587 206.593 342.963 208.556ZM346.229 196.586L345.222 196.355C345.679 194.36 346.1 192.329 346.474 190.321L347.489 190.51C347.113 192.532 346.689 194.576 346.229 196.586ZM348.498 184.386L347.476 184.24C347.767 182.215 348.019 180.156 348.226 178.122L349.253 178.227C349.045 180.275 348.791 182.347 348.498 184.386ZM349.754 172.04L348.723 171.978C348.846 169.937 348.929 167.865 348.967 165.819L350 165.839C349.961 167.899 349.878 169.985 349.754 172.04ZM349.99 159.632L348.958 159.655C348.938 158.757 348.91 157.86 348.874 156.963C348.828 155.813 348.768 154.647 348.695 153.496L349.726 153.431C349.799 154.59 349.86 155.764 349.906 156.922C349.942 157.824 349.97 158.728 349.99 159.632ZM348.181 147.356C347.969 145.322 347.711 143.265 347.416 141.242L348.438 141.093C348.735 143.129 348.994 145.2 349.208 147.249L348.181 147.356ZM346.402 135.163C346.024 133.154 345.6 131.124 345.141 129.13L346.147 128.898C346.609 130.906 347.037 132.95 347.417 134.972L346.402 135.163ZM343.634 123.153C343.094 121.178 342.506 119.19 341.886 117.241L342.87 116.928C343.494 118.89 344.086 120.892 344.63 122.88L343.634 123.153ZM339.899 111.406C339.2 109.483 338.452 107.548 337.675 105.655L338.631 105.263C339.413 107.169 340.166 109.117 340.869 111.053L339.899 111.406ZM335.22 99.999C334.366 98.1385 333.463 96.2707 332.535 94.4472L333.456 93.9789C334.39 95.8147 335.299 97.6952 336.158 99.5683L335.22 99.999ZM329.627 89.0092C328.625 87.225 327.572 85.4369 326.498 83.6945L327.377 83.1526C328.459 84.9068 329.518 86.7073 330.527 88.5038L329.627 89.0092ZM323.154 78.5118C322.009 76.8144 320.813 75.118 319.6 73.47L320.432 72.8578C321.653 74.5171 322.857 76.2253 324.01 77.9345L323.154 78.5118ZM315.842 68.5776C314.56 66.9788 313.229 65.3862 311.885 63.8441L312.663 63.1655C314.017 64.7183 315.357 66.3218 316.648 67.9317L315.842 68.5776ZM307.735 59.277C306.326 57.7888 304.868 56.3111 303.4 54.8844L304.12 54.144C305.598 55.5804 307.066 57.0685 308.485 58.5668L307.735 59.277ZM298.887 50.6738C297.36 49.3073 295.784 47.9544 294.203 46.6527L294.859 45.8553C296.452 47.1662 298.038 48.5285 299.576 49.9044L298.887 50.6738ZM289.356 42.8278C287.727 41.5961 286.048 40.3793 284.364 39.2114L284.952 38.3628C286.648 39.5388 288.339 40.764 289.979 42.0041L289.356 42.8278ZM279.228 35.8031C277.504 34.7092 275.731 33.6339 273.957 32.6066L274.474 31.7129C276.26 32.747 278.046 33.8299 279.781 34.9312L279.228 35.8031Z" fill="#E6E6E6"/>
        <path d="M334.934 228.731L334.004 228.283C334.452 227.354 334.89 226.422 335.318 225.488L336.257 225.918C335.826 226.858 335.385 227.796 334.934 228.731Z" fill="#E6E6E6"/>
        <path d="M267.104 33.1038L268.078 32.7604L266.381 27.9601L271.293 26.6176L271.02 25.6211L265.038 27.2568L267.104 33.1038Z" fill="#E6E6E6"/>
        <path d="M332.042 223.622L333.024 223.299L334.612 228.136L339.321 226.199L339.713 227.155L333.977 229.514L332.042 223.622Z" fill="#E6E6E6"/>
    </g>
    <defs>
        <clipPath id="clip0_664_7041">
            <rect width="350" height="322.043" fill="white" transform="translate(0 0.733398)"/>
        </clipPath>
    </defs>
</svg>
